<?xml version="1.0" standalone="no"?><!DOCTYPE svg PUBLIC "-//W3C//DTD SVG 1.1//EN" "http://www.w3.org/Graphics/SVG/1.1/DTD/svg11.dtd"><svg t="1603716580916" class="icon" viewBox="0 0 1024 1024" version="1.1" xmlns="http://www.w3.org/2000/svg" p-id="3092" xmlns:xlink="http://www.w3.org/1999/xlink" width="200" height="200"><defs><style type="text/css"></style></defs><path d="M180.5 674.9c-6.5 0-11.7 5.2-11.6 11.6 0 6.4 5.2 11.6 11.6 11.6s11.6-5.2 11.6-11.6c0-6.4-5.2-11.6-11.6-11.6z" p-id="3093"></path><path d="M814.2 453.8h5.9c0.1-3.9 0.2-7.7 0.2-11.6 0-160.7-130.2-290.9-290.9-290.9-151.4 0-275.7 115.6-289.6 263.3C138.9 440 64 531.2 64 640c0 128.6 104.2 232.7 232.7 232.7h453.8v-0.2c116.2-3.1 209.5-98 209.5-215 0.1-94.7-61.1-174.8-145.8-203.7z m-69.4 360.7c-2 0-3.9-0.2-5.8-0.2v0.2H296.8c-96.4 0-174.6-78.2-174.6-174.6s78.2-174.6 174.6-174.6 174.6 78.2 174.6 174.6h0.6c-0.4 1.9-0.6 3.8-0.6 5.8 0 16 13.1 29.1 29.1 29.1s29.1-13.1 29.1-29.1c0-2-0.2-3.9-0.6-5.8h0.6c0-127.5-102.7-231-229.8-232.6 16.9-112.1 113.1-198 229.8-198 128.6 0 232.7 104.2 232.7 232.7v0.8c-5.7-0.5-11.5-0.8-17.3-0.8-20.3 0-39.8 3-58.5 8.2 0.2 1.2 0.5 2.3 0.7 3.4h-0.5c-16 0-29.1 13.1-29.1 29.1s13.1 29.1 29.1 29.1c6.8 0 12.8-2.4 17.8-6.2 12.8-3.4 26.4-5.5 40.4-5.5 86.7 0 157.1 70.3 157.1 157.1-0.1 86.9-70.5 157.3-157.2 157.3z" p-id="3094"></path><path d="M296.8 500.4c-77.1 0-139.6 62.5-139.5 139.5 0 6.4 5.2 11.6 11.6 11.6 6.4 0 11.6-5.2 11.6-11.6 0-64.3 52-116.3 116.3-116.3 6.4 0 11.6-5.2 11.6-11.6s-5.2-11.6-11.6-11.6z" p-id="3095"></path></svg>