<svg class="icon" viewBox="0 0 1024 1024" xmlns="http://www.w3.org/2000/svg" width="200" height="200"><defs><style/></defs><path d="M512 0C229.76 0 0 229.76 0 512s229.76 512 512 512 512-229.76 512-512S794.24 0 512 0zm0 960C264.96 960 64 759.04 64 512S264.96 64 512 64s448 200.96 448 448-200.96 448-448 448z"/><path d="M256 384a64 64 0 1 0 128 0 64 64 0 1 0-128 0zM640 384a64 64 0 1 0 128 0 64 64 0 1 0-128 0zM512 704c-62.72 0-121.6-30.72-157.44-82.56l-52.48 36.48C349.44 727.04 428.16 768 512 768s161.92-40.96 209.92-109.44l-52.48-36.48C633.6 673.28 574.72 704 512 704z"/></svg>