<svg class="icon" viewBox="0 0 1024 1024" xmlns="http://www.w3.org/2000/svg" width="200" height="200"><defs><style/></defs><path d="M509.742 34.862c-96.818 0-189.482 38.474-257.761 106.934-68.279 68.46-106.753 161.304-106.753 257.942 0 145.408 189.482 434.96 295.152 559.777 17.16 20.41 42.448 32.152 69.181 32.152h.362c26.733 0 52.022-11.741 69.182-32.152 105.669-124.817 295.151-414.55 295.151-559.777.181-201.405-163.11-364.876-364.514-364.876zm8.129 872.992c-1.987 2.348-4.878 3.613-7.948 3.613h-.362c-3.07 0-5.96-1.445-7.947-3.794-42.99-50.757-115.243-149.201-178.826-260.11-87.967-154.078-97.36-224.705-97.36-247.825 0-157.15 127.345-284.495 284.314-284.676 157.15.362 284.314 127.707 284.314 284.676 0 69.543-68.098 196.527-97.36 247.826-63.221 110.908-135.835 209.171-178.825 260.29z"/><path d="M509.923 217.3h-.362c-88.509 0-160.4 71.891-160.4 160.4s71.891 160.401 160.4 160.401h.723c88.51-.18 160.22-72.072 160.22-160.581-.18-88.69-72.072-160.4-160.581-160.22zm0 240.6h-.542c-44.255 0-80.2-35.945-80.2-80.2s35.945-80.2 80.2-80.2h.18c44.255 0 80.2 35.765 80.381 80.02.181 44.255-35.584 80.2-80.02 80.38z"/></svg>