<svg class="icon" viewBox="0 0 1239 1024" xmlns="http://www.w3.org/2000/svg" width="241.992" height="200"><defs><style/></defs><path d="M1111.75 485.148a117.087 117.087 0 0 0-94.532-114.74V157.845a65.247 65.247 0 0 0-65.054-65.054H248.761a65.247 65.247 0 0 0-65.054 65.054v214.79a116.894 116.894 0 0 0 0 229.091v181.248a65.318 65.318 0 0 0 48.79 63.021 116.894 116.894 0 0 0 227.284 2.033h288.576a116.894 116.894 0 0 0 227.832-4.625 65.288 65.288 0 0 0 41.021-60.429V599.889a117.087 117.087 0 0 0 94.54-114.741zM248.873 157.845h703.173l.112.112v305.338H248.76V157.958a1.159 1.159 0 0 1 .112-.112zm703.283 465.544H801.72v65.054h150.437v94.42l-.112.112H248.873l-.112-.112v-94.421h151.454v-65.054H248.761v-95.04h703.397zm-796.91-136.208a51.9 51.9 0 0 1 28.461-46.25v92.5a51.9 51.9 0 0 1-28.461-46.25zm191.096 384.225a51.84 51.84 0 0 1-43.302-23.379h86.603a51.84 51.84 0 0 1-43.301 23.379zm515.35 0a51.84 51.84 0 0 1-43.302-23.379h86.604a51.84 51.84 0 0 1-43.302 23.379zm155.52-339.501v-93.516a51.84 51.84 0 0 1 0 93.516z"/></svg>