<svg class="icon" viewBox="0 0 1024 1024" xmlns="http://www.w3.org/2000/svg" width="200" height="200"><defs><style/></defs><path d="M944 672h-86.112c-1.44-7.648-3.2-15.136-5.12-22.592l153.568-76.768a32.032 32.032 0 0 0-28.64-57.248L831.2 588.608C775.328 468.032 653.44 384 512 384c-172.224 0-315.68 124.416-345.888 288H80a80.096 80.096 0 0 0-80 80c0 15.68 5.76 30.816 16.16 42.528L128 920.352V944c0 44.128 35.904 80 80 80h608c44.128 0 80-35.872 80-80v-23.648l111.808-125.824A63.938 63.938 0 0 0 1024 752c0-44.128-35.872-80-80-80zm-118.432 0h-17.984l15.936-8c.608 2.688 1.472 5.28 2.048 8zM512 416c128.928 0 240 76.8 290.624 186.912l-28.512 14.24C728.8 517.472 628.64 448 512 448c-137.024 0-251.488 95.776-280.64 224h-32.896C228.192 526.112 357.472 416 512 416zm146.432 256C633.696 615.584 577.44 576 512 576s-121.664 39.584-146.432 96H331.2c26.432-74.432 97.376-128 180.8-128a192.192 192.192 0 0 1 176.256 116.064L664.448 672h-6.016zM512 640c-28.256 0-53.44 12.512-71.04 32h-39.168C424 633.952 464.832 608 512 608c47.136 0 88 25.952 110.176 64h-39.2A95.264 95.264 0 0 0 512 640zm0-128c-101.28 0-186.944 67.584-214.56 160h-33.024C292.96 561.792 392.96 480 512 480c103.872 0 193.376 62.336 233.44 151.488l-28.576 14.272C682.048 567.136 603.36 512 512 512zm320 384v48a16 16 0 0 1-16 16H208a16 16 0 0 1-16-16v-48L64 752a16 16 0 0 1 16-16h864a16 16 0 0 1 16 16L832 896zM255.264 374.784l.256.576h.064c2.656 5.12 7.968 8.64 14.176 8.64a16.096 16.096 0 0 0 15.488-20.096 1.088 1.088 0 0 0 0-.64c-12-28.224-.608-59.2 13.408-92.544 15.136-36.032 31.36-76.032 13.504-116.704a15.68 15.68 0 0 0-29.216 11.264l.096.288.16.384c12.928 29.088.416 58.912-13.696 92.576-14.912 35.488-31.424 74.816-14.816 114.912l.576 1.344zm389.664-4.672c.128.192.192.384.256.576h.064a16.032 16.032 0 0 0 29.728-11.424.768.768 0 0 0-.064-.64c-11.936-28.224-.576-59.2 13.44-92.544 15.136-36.032 31.36-76.032 13.504-116.704a15.68 15.68 0 0 0-29.248 11.072v.192l.128.288a.896.896 0 0 1 .128.384c12.928 29.088.448 58.912-13.696 92.576-14.88 35.488-31.36 74.848-14.752 114.944l.512 1.28zm-164.32-139.328l.256.576h.064a16.032 16.032 0 0 0 30.24-7.424 15.104 15.104 0 0 0-.576-4 1.088 1.088 0 0 0 0-.64c-12-28.224-.608-59.2 13.408-92.544 15.136-36.032 31.36-76.032 13.504-116.704a15.68 15.68 0 0 0-29.248 11.232l.096.288.128.384c12.928 29.088.416 58.912-13.696 92.576-14.912 35.488-31.424 74.848-14.784 114.944l.608 1.312z"/></svg>