<svg class="icon" viewBox="0 0 1024 1024" xmlns="http://www.w3.org/2000/svg" width="200" height="200"><defs><style/></defs><path d="M512.293 76.142a435.785 435.785 0 0 1 308.15 743.863 435.785 435.785 0 1 1-616.228-616.229A432.86 432.86 0 0 1 512.293 76.142m0-75.337a511.122 511.122 0 1 0 .073 1022.244 511.122 511.122 0 0 0 0-1022.244z"/><path d="M512.293 447.342a64.512 64.512 0 1 0 0 129.097 64.512 64.512 0 0 0 0-129.097zm-226.012 0a64.512 64.512 0 1 0 0 129.097 64.512 64.512 0 0 0 0-129.097zm452.023 0a64.512 64.512 0 1 0-.073 129.097 64.512 64.512 0 0 0 0-129.097z"/></svg>